#!OML:ASF F:\VICON\USERDATA\INSTALL\rory3\rory3.ASF
:FULLY-SPECIFIED
:DEGREES
183
root -6.39359 15.7017 4.53822 -169.164 57.658 -166.194
lowerback 9.42939 1.03144 5.90507
upperback -0.716418 2.19467 1.5939
thorax -5.8997 0.939783 -1.96281
lowerneck -11.8181 -7.3302 -12.7271
upperneck 25.521 -8.96649 8.16544
head 11.1934 -4.14273 3.94768
rclavicle -9.30623e-014 -2.06736e-014
rhumerus -30.1131 5.10752 -90.5262
rradius 33.4455
rwrist 5.0911
rhand -16.6333 12.2371
rfingers 7.12502
rthumb 9.58912 -17.5246
lclavicle -9.30623e-014 -2.06736e-014
lhumerus -35.5047 14.3019 79.8487
lradius 24.1926
lwrist -6.20158
lhand -10.7907 13.3713
lfingers 7.12502
lthumb 15.2221 42.7913
rfemur 13.0206 4.25935 35.714
rtibia 10.2064
rfoot -13.9585 -17.7285
rtoes -6.18004
lfemur -29.4774 -9.39783 -10.1427
ltibia 24.9387
lfoot -14.9025 19.0166
ltoes -3.52113
184
root -6.28942 15.702 4.45072 -168.575 57.939 -165.759
lowerback 9.21458 1.109 6.02323
upperback -0.797786 2.30403 1.66571
thorax -5.85488 0.9915 -1.96319
lowerneck -11.8554 -7.30398 -12.6302
upperneck 25.3568 -8.93613 8.1066
head 11.1259 -4.13001 3.90912
rclavicle -4.22914e-014 -9.74045e-015
rhumerus -30.0999 4.96544 -90.523
rradius 33.0582
rwrist 5.43566
rhand -16.4634 11.7149
rfingers 7.12502
rthumb 9.75305 -18.0392
lclavicle -4.22914e-014 -9.74045e-015
lhumerus -35.734 14.2552 79.9157
lradius 23.6813
lwrist -5.52646
lhand -11.7537 12.7415
lfingers 7.12502
lthumb 14.2943 42.2295
rfemur 13.9188 4.37657 35.7697
rtibia 9.09413
rfoot -13.0873 -17.6241
rtoes -7.71379
lfemur -29.6601 -9.6662 -9.75162
ltibia 24.6189
lfoot -15.5319 19.293
ltoes -2.84483
185
root -6.18481 15.7061 4.3595 -167.986 58.2183 -165.364
lowerback 8.91309 1.19532 6.14236
upperback -0.865853 2.4173 1.74022
thorax -5.74634 1.04758 -1.95828
lowerneck -11.9453 -7.29899 -12.6313
upperneck 25.2477 -8.91536 8.07301
head 11.0983 -4.1266 3.89465
rclavicle -3.10725e-014 -2.34566e-014
rhumerus -30.1658 4.97098 -90.5014
rradius 32.8315
rwrist 5.63146
rhand -16.4023 11.6925
rfingers 7.12502
rthumb 9.81202 -18.0589
lclavicle -3.10725e-014 -2.34566e-014
lhumerus -36.005 14.3602 79.9427
lradius 23.2602
lwrist -5.28422
lhand -12.6285 12.2384
lfingers 7.12502
lthumb 13.4513 41.7841
rfemur 14.7673 4.50472 35.7785
rtibia 8.00104
rfoot -12.1876 -17.477
rtoes -9.25057
lfemur -29.8589 -10.0099 -9.39507
ltibia 24.4831
lfoot -16.2519 19.6022
ltoes -2.53342
186
root -6.07831 15.705 4.26576 -167.32 58.4071 -164.786
lowerback 8.66831 1.24735 6.38926
upperback -0.903557 2.50502 1.84596
thorax -5.63642 1.08935 -1.98927
lowerneck -12.0962 -7.30108 -12.6729
upperneck 25.2076 -8.8965 8.06658
head 11.1127 -4.12256 3.89672
rclavicle 8.45456e-015 9.14409e-015
rhumerus -30.3447 5.06812 -90.4857
rradius 32.7722
rwrist 5.73122
rhand -16.4049 11.3923
rfingers 7.12502
rthumb 9.80957 -18.3592
lclavicle 8.45456e-015 9.14409e-015
lhumerus -36.2531 14.6646 79.8144
lradius 22.9253
lwrist -5.60715
lhand -12.807 12.1293
lfingers 7.12502
lthumb 13.2793 41.6863
rfemur 15.4463 4.54457 35.9116
rtibia 7.39187
rfoot -11.4384 -17.3092
rtoes -10.9925
lfemur -29.9105 -10.2651 -9.00088
ltibia 24.4056
lfoot -16.6023 19.7731
ltoes -2.85298
187
root -5.96985 15.7006 4.17273 -166.81 58.5114 -164.356
lowerback 8.47255 1.25116 6.57296
upperback -0.973844 2.52241 1.90775
thorax -5.59444 1.09433 -2.02379
lowerneck -12.1333 -7.27546 -12.7101
upperneck 25.1146 -8.86756 8.12905
head 11.0863 -4.10783 3.92742
rclavicle 9.78021e-014 6.16232e-015
rhumerus -30.4865 4.95421 -90.4644
rradius 32.5076
rwrist 6.02374
rhand -16.3315 11.3081
rfingers 7.12502
rthumb 9.88038 -18.44
lclavicle 9.78021e-014 6.16232e-015
lhumerus -36.5167 14.9252 79.6111
lradius 22.5994
lwrist -5.82088
lhand -12.7946 12.1679
lfingers 7.12502
lthumb 13.2912 41.7241
rfemur 16.0053 4.48784 35.9652
rtibia 7.12095
rfoot -11.1991 -16.941
rtoes -11.112
lfemur -29.9168 -10.3877 -8.75869
ltibia 24.4547
lfoot -16.6446 19.6596
ltoes -2.986
188
root -5.86208 15.6958 4.08087 -166.451 58.6272 -164.134
lowerback 8.32279 1.24114 6.62671
upperback -1.09449 2.51036 1.93638
thorax -5.63746 1.08368 -2.01915
lowerneck -12.0771 -7.22975 -12.7168
upperneck 24.977 -8.82197 8.17904
head 11.0202 -4.08598 3.95245
rclavicle 3.59055e-015 -2.92213e-014
rhumerus -30.6817 4.95369 -90.5286
rradius 32.2595
rwrist 6.0766
rhand -16.3236 12.0006
rfingers 7.12502
rthumb 9.888 -17.7471
lclavicle 3.59055e-015 -2.92213e-014
lhumerus -36.8729 15.0732 79.4129
lradius 22.37
lwrist -5.84063
lhand -12.7764 12.4092
lfingers 7.12502
lthumb 13.3087 41.9642
rfemur 16.4665 4.43511 35.8757
rtibia 7.01295
rfoot -11.117 -16.4537
rtoes -10.6042
lfemur -29.9444 -10.5069 -8.6652
ltibia 24.6628
lfoot -16.5541 19.4127
ltoes -2.97362
189
root -5.7522 15.6863 3.98941 -166.024 58.8397 -163.831
lowerback 8.16218 1.30769 6.63206
upperback -1.19082 2.59483 1.98687
thorax -5.64356 1.12443 -1.97577
lowerneck -12.0359 -7.20445 -12.6819
upperneck 24.8272 -8.80618 8.20214
head 10.9527 -4.07666 3.95526
rclavicle -7.48549e-016 5.76476e-015
rhumerus -30.8581 4.84985 -90.5364
rradius 31.9936
rwrist 6.08031
rhand -16.4477 12.3035
rfingers 7.12502
rthumb 9.76826 -17.45
lclavicle -7.48549e-016 5.76476e-015
lhumerus -37.2003 15.48 79.0913
lradius 22.1093
lwrist -6.10055
lhand -12.6703 12.5871
lfingers 7.12502
lthumb 13.411 42.1354
rfemur 16.7402 4.48532 35.7913
rtibia 7.32571
rfoot -11.3766 -15.7603
rtoes -9.25443
lfemur -29.905 -10.372 -8.63178
ltibia 24.9665
lfoot -16.2713 19.1247
ltoes -3.21128
